<mxfile host="app.diagrams.net" modified="2023-11-19T16:39:47.200Z" agent="Mozilla/5.0 (Windows NT 10.0; Win64; x64) AppleWebKit/537.36 (KHTML, like Gecko) Chrome/119.0.0.0 Safari/537.36" version="22.1.3" etag="v7tE4ioqjsN_XlNPfMUc" type="github">
  <diagram name="Seite-1" id="y05kICb7hbJ16dQobCVx">
    <mxGraphModel>
      <root>
        <mxCell id="0" />
        <mxCell id="1" parent="0" />
      </root>
    </mxGraphModel>
  </diagram>
</mxfile>
